<?xml version="1.0" encoding="utf-8"?>
<!-- Generator: Adobe Illustrator 26.5.0, SVG Export Plug-In . SVG Version: 6.00 Build 0)  -->
<svg version="1.1" id="Vrstva_2_00000006696321293715725900000000934002466979148720_"
	 xmlns="http://www.w3.org/2000/svg" xmlns:xlink="http://www.w3.org/1999/xlink" x="0px" y="0px" viewBox="0 0 21.5 21.5"
	 style="enable-background:new 0 0 21.5 21.5;" xml:space="preserve">
<style type="text/css">
	.st0{fill:#42B7B7;}
</style>
<g id="Vrstva_1-2">
	<g>
		<g>
			<path class="st0" d="M10.7,0C4.8,0,0,4.8,0,10.7s4.8,10.7,10.7,10.7s10.7-4.8,10.7-10.7S16.6,0,10.7,0z M5.8,13.7H4.5V8.4h1.3
				V13.7z M7.9,10.3c0.2,0.1,0.5,0.2,0.9,0.3c0.7,0.2,1.3,0.4,1.6,0.7s0.5,0.6,0.5,1c0,0.5-0.2,0.8-0.6,1.1s-1,0.4-1.7,0.4
				c-0.5,0-0.9-0.1-1.3-0.2c-0.4-0.1-0.7-0.4-0.9-0.6s-0.3-0.6-0.3-0.9h1.3c0,0.6,0.4,0.9,1.2,0.9c0.3,0,0.6-0.1,0.7-0.2
				s0.3-0.2,0.3-0.4c0-0.2-0.1-0.4-0.3-0.5s-0.5-0.2-0.9-0.4c-0.4-0.1-0.8-0.2-1.1-0.4c-0.7-0.3-1.1-0.8-1.1-1.3
				c0-0.3,0.1-0.5,0.3-0.8S7,8.7,7.4,8.5s0.8-0.2,1.2-0.2s0.9,0.1,1.2,0.2c0.4,0.1,0.6,0.3,0.8,0.6s0.3,0.5,0.3,0.9H9.6
				c0-0.2-0.1-0.4-0.3-0.6C9.1,9.3,8.9,9.2,8.6,9.2S8,9.3,7.8,9.4S7.6,9.7,7.6,9.8C7.6,10,7.7,10.2,7.9,10.3L7.9,10.3z M12.4,8.6
				v5.1h-1.3V8.4h1.3V8.6L12.4,8.6z M14.4,12.5c0.2,0.3,0.5,0.4,1,0.4c0.4,0,0.7-0.1,0.9-0.2s0.3-0.4,0.3-0.7h1.3
				c0,0.6-0.3,1-0.8,1.4s-1,0.5-1.8,0.5c-0.8,0-1.4-0.2-1.9-0.7s-0.7-1.1-0.7-1.9v-0.3c0-0.5,0.1-1,0.3-1.4s0.5-0.7,0.9-0.9
				c0.4-0.2,0.9-0.3,1.4-0.3c0.7,0,1.3,0.2,1.8,0.5s0.7,0.8,0.8,1.4h-1.3c0-0.3-0.1-0.6-0.3-0.8c-0.2-0.1-0.5-0.2-0.9-0.2
				c-0.4,0-0.8,0.1-1,0.4s-0.3,0.7-0.3,1.2v0.4C14,11.8,14.1,12.3,14.4,12.5L14.4,12.5z"/>
			<rect x="11.1" y="8.4" class="st0" width="1.3" height="0.4"/>
		</g>
	</g>
</g>
</svg>
